<svg height="512" viewBox="0 0 64 64" width="512" xmlns="http://www.w3.org/2000/svg"><rect fill="#5aaae7" height="58" rx="4" width="34" x="12" y="3"/><path d="m46 21.03v35.97a4 4 0 0 1 -4 4h-26a4 4 0 0 1 -4-4v-1.96a110.862 110.862 0 0 0 34-34.01z" fill="#3d9ae2"/><path d="m54 15v39a1 1 0 0 1 -1 1h-22a1 1 0 0 1 -1-1v-39l2 4 2-4 2 4 2-4 2 4 2.01-4 1.99 4 2-4 2 4 2-4 2 4z" fill="#e6e7e8"/><path d="m36 3v2a2.006 2.006 0 0 1 -2 2h-10a2.006 2.006 0 0 1 -2-2v-2z" fill="#ff9811"/><path d="m54 21.58v32.42a1 1 0 0 1 -1 1h-22a1 1 0 0 1 -1-1v-6.34a110.052 110.052 0 0 0 24-26.08z" fill="#d8d7da"/><path d="m54.229 14.027a1 1 0 0 0 -1.124.526l-1.105 2.211-1.1-2.211a1.042 1.042 0 0 0 -1.79 0l-1.11 2.211-1-2v-7.764a5.006 5.006 0 0 0 -5-5h-26a5.006 5.006 0 0 0 -5 5v50a5.006 5.006 0 0 0 5 5h26a5.006 5.006 0 0 0 5-5v-1h6a2 2 0 0 0 2-2v-39a1 1 0 0 0 -.771-.973zm-31.229-10.027h12v1a1 1 0 0 1 -1 1h-10a1 1 0 0 1 -1-1zm22 53a3 3 0 0 1 -3 3h-26a3 3 0 0 1 -3-3v-50a3 3 0 0 1 3-3h5v1a3 3 0 0 0 3 3h10a3 3 0 0 0 3-3v-1h5a3 3 0 0 1 3 3v7.764l-1 2-1.1-2.2a1 1 0 0 0 -.886-.564 1 1 0 0 0 -.894.551l-1.12 2.218-1.1-2.216a1.042 1.042 0 0 0 -1.79 0l-1.11 2.211-1.1-2.211a1.042 1.042 0 0 0 -1.79 0l-1.11 2.211-1.1-2.211a1 1 0 0 0 -1.9.447v39a2 2 0 0 0 2 2h14zm8-3h-22v-34.764l.105.211a1.042 1.042 0 0 0 1.79 0l1.105-2.211 1.1 2.211a1.042 1.042 0 0 0 1.79 0l1.11-2.211 1.1 2.211a1 1 0 0 0 .9.553 1 1 0 0 0 .894-.551l1.113-2.213 1.1 2.209a1 1 0 0 0 .893.555 1 1 0 0 0 .9-.553l1.1-2.211 1.1 2.211a1.042 1.042 0 0 0 1.79 0l1.11-2.211 1.1 2.211a1.042 1.042 0 0 0 1.79 0l.1-.211z"/><path d="m35 24h10v2h-10z"/><path d="m47 24h2v2h-2z"/><path d="m35 28h10v2h-10z"/><path d="m47 28h2v2h-2z"/><path d="m35 32h10v2h-10z"/><path d="m47 32h2v2h-2z"/><path d="m35 36h10v2h-10z"/><path d="m47 36h2v2h-2z"/><path d="m35 40h10v2h-10z"/><path d="m47 40h2v2h-2z"/><path d="m35 44h10v2h-10z"/><path d="m47 44h2v2h-2z"/><path d="m39 48h6v2h-6z"/><path d="m47 48h2v2h-2z"/></svg>